<svg xmlns:dc="http://purl.org/dc/elements/1.1/" xmlns:cc="http://creativecommons.org/ns#" xmlns:rdf="http://www.w3.org/1999/02/22-rdf-syntax-ns#" xmlns:svg="http://www.w3.org/2000/svg" xmlns="http://www.w3.org/2000/svg" xmlns:sodipodi="http://sodipodi.sourceforge.net/DTD/sodipodi-0.dtd" xmlns:inkscape="http://www.inkscape.org/namespaces/inkscape" viewBox="0 0 16.933333 21.1666675" version="1.1" x="0px" y="0px"><g transform="translate(0,-280.06665)"><path d="m 4.6984457,285.25417 c 0.384385,0 0.733107,0.15616 0.985811,0.40867 l 2.64e-4,2.6e-4 2.64e-4,2.6e-4 1.59e-4,1.6e-4 c 0.252359,0.25271 0.408516,0.60129 0.408516,0.98565 0,0.38439 -0.156157,0.73314 -0.408675,0.98582 l -2.64e-4,2.6e-4 -2.64e-4,2.6e-4 -1.59e-4,1.6e-4 c -0.252705,0.25236 -0.601452,0.40852 -0.985652,0.40852 -0.384863,0 -0.733611,-0.15632 -0.985971,-0.40852 l -5.3e-4,-5.3e-4 c -0.252201,-0.25236 -0.408517,-0.6011 -0.408517,-0.98597 0,-0.38486 0.156316,-0.73361 0.408517,-0.98597 l 5.3e-4,-5.3e-4 c 0.25236,-0.25221 0.601108,-0.40852 0.985971,-0.40852 z m 0.789754,0.60473 c -0.201453,-0.20164 -0.481065,-0.32657 -0.789754,-0.32657 -0.30869,0 -0.588144,0.12493 -0.790259,0.32673 -0.201797,0.20211 -0.326733,0.48157 -0.326733,0.79026 0,0.30869 0.124936,0.58814 0.326733,0.79025 0.202115,0.2018 0.481569,0.32676 0.790259,0.32676 0.308689,0 0.588301,-0.12496 0.789754,-0.3266 l 5.29e-4,-5.3e-4 c 0.201639,-0.20148 0.326578,-0.48109 0.326578,-0.78978 0,-0.30885 -0.124939,-0.5883 -0.326578,-0.78975 z m 2.978467,-0.32657 c -0.308848,0 -0.588301,0.12493 -0.789781,0.32657 l -5.29e-4,7.9e-4 c -0.20164,0.20146 -0.326602,0.48091 -0.326602,0.78976 0,0.30869 0.124962,0.5883 0.326602,0.78978 l 5.29e-4,5.3e-4 c 0.20148,0.20164 0.480933,0.3266 0.789781,0.3266 0.308689,0 0.5883,-0.12496 0.789754,-0.3266 l 5.29e-4,-5.3e-4 c 0.201639,-0.20148 0.326575,-0.48109 0.326575,-0.78978 0,-0.30885 -0.124936,-0.5883 -0.326575,-0.78976 l -5.29e-4,-7.9e-4 c -0.201454,-0.20164 -0.481065,-0.32657 -0.789754,-0.32657 z m -0.986473,0.13118 2.64e-4,-2.6e-4 2.64e-4,-2.6e-4 c 0.252678,-0.25252 0.601266,-0.40868 0.985811,-0.40868 0.3842011,0 0.732948,0.15616 0.985653,0.40852 l 1.59e-4,1.6e-4 2.63e-4,2.6e-4 2.64e-4,2.6e-4 c 0.252519,0.2527 0.408676,0.60126 0.408676,0.98581 0,0.38422 -0.156157,0.73295 -0.408517,0.98565 l -1.59e-4,1.6e-4 -2.64e-4,2.6e-4 -2.63e-4,2.6e-4 c -0.252705,0.25252 -0.6014519,0.40867 -0.985812,0.40867 -0.3843859,0 -0.732949,-0.15615 -0.985653,-0.40851 l -1.579e-4,-1.6e-4 -2.641e-4,-2.6e-4 -2.64e-4,-2.6e-4 c -0.252518,-0.25268 -0.408675,-0.60143 -0.408675,-0.98581 0,-0.38436 0.156157,-0.73295 0.408517,-0.98566 z m -2.781748,5.87105 c 0.308689,0 0.588301,-0.12497 0.789754,-0.3266 l 5.29e-4,-5.3e-4 c 0.201639,-0.20148 0.326578,-0.4811 0.326578,-0.78979 0,-0.30884 -0.124939,-0.5883 -0.326578,-0.78975 l -5.29e-4,-5.3e-4 c -0.201453,-0.20164 -0.481065,-0.32657 -0.789754,-0.32657 -0.30869,0 -0.588144,0.12493 -0.790259,0.32673 -0.201797,0.20211 -0.326733,0.48157 -0.326733,0.79026 0,0.30869 0.124936,0.58814 0.326733,0.79025 0.202115,0.2018 0.481569,0.32677 0.790259,0.32677 z m 0.986472,-0.13121 -2.65e-4,2.6e-4 -2.64e-4,2.6e-4 c -0.252703,0.25252 -0.601425,0.40867 -0.98581,0.40867 -0.384864,0 -0.73361,-0.15631 -0.98597,-0.40851 l -5.29e-4,-5.3e-4 c -0.252202,-0.25236 -0.408518,-0.60111 -0.408518,-0.98597 0,-0.38486 0.156316,-0.73361 0.408518,-0.98597 l 5.29e-4,-5.3e-4 c 0.25236,-0.2522 0.601106,-0.40852 0.98597,-0.40852 0.384201,0 0.732949,0.15616 0.985652,0.40852 l 1.58e-4,1.6e-4 2.64e-4,2.6e-4 2.65e-4,2.6e-4 c 0.252518,0.2527 0.408674,0.60126 0.408674,0.98581 0,0.38423 -0.156156,0.73295 -0.408515,0.98565 z m 2.781749,0.40934 c -0.384547,0 -0.733133,-0.15616 -0.985811,-0.40868 l -2.64e-4,-2.6e-4 -2.64e-4,-2.6e-4 -1.59e-4,-1.6e-4 c -0.25236,-0.2527 -0.408517,-0.60142 -0.408517,-0.98565 0,-0.38454 0.156157,-0.73311 0.408676,-0.98581 l 2.64e-4,-2.6e-4 2.64e-4,-2.6e-4 1.59e-4,-1.6e-4 c 0.252703,-0.25236 0.601264,-0.40851 0.985652,-0.40851 0.38436,0 0.733107,0.15615 0.98581,0.40867 l 2.64e-4,2.6e-4 2.64e-4,2.6e-4 1.59e-4,1.6e-4 c 0.252359,0.2527 0.408516,0.60129 0.408516,0.98565 0,0.38439 -0.156157,0.73314 -0.408675,0.98581 l -2.64e-4,2.6e-4 -2.64e-4,2.6e-4 -1.57e-4,1.6e-4 c -0.252703,0.25236 -0.601452,0.40852 -0.985653,0.40852 z m -0.789781,-0.60473 c 0.20148,0.20163 0.480933,0.3266 0.789781,0.3266 0.308689,0 0.5883,-0.12497 0.789754,-0.3266 l 5.29e-4,-5.3e-4 c 0.201639,-0.20148 0.326575,-0.4811 0.326575,-0.78979 0,-0.30884 -0.124936,-0.5883 -0.326575,-0.78975 l -5.29e-4,-5.3e-4 c -0.201454,-0.20164 -0.481065,-0.32657 -0.789754,-0.32657 -0.308848,0 -0.588301,0.12493 -0.789781,0.32657 l -5.29e-4,5.3e-4 c -0.20164,0.20145 -0.326602,0.48091 -0.326602,0.78975 0,0.30869 0.124962,0.58831 0.326602,0.78979 z m -2.97844,1.58265 c 0.384385,0 0.733107,0.15616 0.985811,0.40868 l 2.64e-4,2.6e-4 2.64e-4,2.6e-4 1.59e-4,1.6e-4 c 0.252359,0.2527 0.408516,0.60129 0.408516,0.98565 0,0.38439 -0.156157,0.73313 -0.408675,0.98581 l -2.64e-4,2.6e-4 -2.64e-4,2.6e-4 -1.59e-4,1.6e-4 c -0.252705,0.25236 -0.601452,0.40851 -0.985652,0.40851 -0.384863,0 -0.733611,-0.15631 -0.985971,-0.40851 l -5.3e-4,-5.3e-4 c -0.252201,-0.25236 -0.408517,-0.60111 -0.408517,-0.98597 0,-0.38486 0.156316,-0.73361 0.408517,-0.98597 l 5.3e-4,-5.3e-4 c 0.25236,-0.2522 0.601108,-0.40852 0.985971,-0.40852 z m 0.789754,0.60474 c -0.201453,-0.20164 -0.481065,-0.32658 -0.789754,-0.32658 -0.30869,0 -0.588144,0.12494 -0.790259,0.32673 -0.201797,0.20212 -0.326733,0.48157 -0.326733,0.79026 0,0.30869 0.124936,0.58814 0.326733,0.79026 0.202115,0.2018 0.481569,0.32676 0.790259,0.32676 0.308689,0 0.588301,-0.12496 0.789754,-0.3266 l 5.29e-4,-5.3e-4 c 0.201639,-0.20148 0.326578,-0.48109 0.326578,-0.78978 0,-0.30885 -0.124939,-0.5883 -0.326578,-0.78976 z m 2.978467,-0.32658 c -0.308848,0 -0.588301,0.12494 -0.789781,0.32658 l -5.29e-4,5.3e-4 c -0.20164,0.20146 -0.326602,0.48091 -0.326602,0.78976 0,0.30869 0.124962,0.5883 0.326602,0.78978 l 5.29e-4,5.3e-4 c 0.20148,0.20164 0.480933,0.3266 0.789781,0.3266 0.308689,0 0.5883,-0.12496 0.789754,-0.3266 l 5.29e-4,-5.3e-4 c 0.201639,-0.20148 0.326575,-0.48109 0.326575,-0.78978 0,-0.30885 -0.124936,-0.5883 -0.326575,-0.78976 l -5.29e-4,-5.3e-4 c -0.201454,-0.20164 -0.481065,-0.32658 -0.789754,-0.32658 z m -0.986473,0.13118 2.64e-4,-2.6e-4 2.64e-4,-2.6e-4 c 0.252678,-0.25252 0.601266,-0.40867 0.985811,-0.40867 0.3842011,0 0.732948,0.15615 0.985653,0.40851 l 1.59e-4,1.6e-4 2.63e-4,2.6e-4 2.64e-4,2.6e-4 c 0.252519,0.2527 0.408676,0.60127 0.408676,0.98581 0,0.38423 -0.156157,0.73295 -0.408517,0.98565 l -1.59e-4,1.6e-4 -2.64e-4,2.6e-4 -2.63e-4,2.6e-4 c -0.252705,0.25252 -0.6014519,0.40868 -0.985812,0.40868 -0.3843859,0 -0.732949,-0.15616 -0.985653,-0.40852 l -1.579e-4,-1.6e-4 -2.641e-4,-2.6e-4 -2.64e-4,-2.6e-4 c -0.252518,-0.25267 -0.408675,-0.60142 -0.408675,-0.98581 0,-0.38436 0.156157,-0.73295 0.408517,-0.98565 z m 4.7546953,-7.94578 c 0.384863,0 0.73361,0.15631 0.98597,0.40852 l 5.29e-4,5.3e-4 c 0.252201,0.25236 0.408516,0.60111 0.408516,0.98597 0,0.38487 -0.156315,0.73361 -0.408516,0.98597 l -5.29e-4,5.3e-4 c -0.25236,0.2522 -0.601107,0.40852 -0.98597,0.40852 -0.384546,0 -0.733134,-0.15616 -0.985811,-0.40868 l -2.65e-4,-2.6e-4 -2.64e-4,-2.6e-4 -1.59e-4,-1.6e-4 c -0.252359,-0.25271 -0.408517,-0.60143 -0.408517,-0.98566 0,-0.38454 0.156158,-0.7331 0.408676,-0.98581 l 2.64e-4,-2.6e-4 2.64e-4,-2.6e-4 1.58e-4,-1.5e-4 c 0.252704,-0.25236 0.601266,-0.40852 0.985654,-0.40852 z m 0.790257,0.60489 c -0.202115,-0.2018 -0.481594,-0.32673 -0.790257,-0.32673 -0.308848,0 -0.588301,0.12493 -0.789782,0.32657 l -5.29e-4,7.9e-4 c -0.201639,0.20146 -0.326601,0.48091 -0.326601,0.78976 0,0.30869 0.124962,0.5883 0.326601,0.78978 l 5.29e-4,5.3e-4 c 0.201481,0.20164 0.480934,0.3266 0.789782,0.3266 0.308663,0 0.588142,-0.12496 0.790257,-0.32676 0.201798,-0.20211 0.326734,-0.48157 0.326734,-0.79026 0,-0.30869 -0.124936,-0.58814 -0.326734,-0.79025 z m 0.326734,4.55848 c 0,-0.30869 -0.124936,-0.58814 -0.326734,-0.79026 -0.202115,-0.2018 -0.481594,-0.32673 -0.790257,-0.32673 -0.308848,0 -0.588301,0.12493 -0.789782,0.32657 l -5.29e-4,5.3e-4 c -0.201639,0.20146 -0.326601,0.48091 -0.326601,0.78976 v 3.76822 c 0,0.30869 0.124962,0.5883 0.326601,0.78978 l 5.29e-4,5.3e-4 c 0.201481,0.20164 0.480934,0.3266 0.789782,0.3266 0.308663,0 0.588142,-0.12496 0.790257,-0.32676 0.201798,-0.20211 0.326734,-0.48157 0.326734,-0.79026 z m -0.13036,-0.98597 c 0.252201,0.25236 0.408517,0.60111 0.408517,0.98597 v 3.76822 c 0,0.38486 -0.156316,0.73361 -0.408517,0.98597 l -5.29e-4,5.3e-4 c -0.25236,0.2522 -0.601107,0.40852 -0.98597,0.40852 -0.384387,0 -0.732949,-0.15616 -0.985652,-0.40852 l -1.59e-4,-1.6e-4 -2.65e-4,-2.6e-4 -2.64e-4,-2.7e-4 c -0.252519,-0.25267 -0.408676,-0.60142 -0.408676,-0.98581 v -3.76822 c 0,-0.38436 0.156157,-0.73295 0.408517,-0.98565 l 1.59e-4,-1.6e-4 2.64e-4,-2.6e-4 2.64e-4,-2.6e-4 c 0.252677,-0.25252 0.601266,-0.40868 0.985811,-0.40868 0.384863,0 0.73361,0.15632 0.98597,0.40852 z m -0.986631,-5.43346 c 0.308663,0 0.588142,-0.12496 0.790257,-0.32676 0.201798,-0.20211 0.326734,-0.48157 0.326734,-0.79026 0,-0.30868 -0.124936,-0.58814 -0.326734,-0.79025 -0.202115,-0.2018 -0.481594,-0.32674 -0.790257,-0.32674 H 4.6984457 c -0.30869,0 -0.588144,0.12494 -0.790259,0.32674 -0.201797,0.20211 -0.326733,0.48157 -0.326733,0.79025 0,0.30869 0.124936,0.58815 0.326733,0.79026 0.202115,0.2018 0.481569,0.32676 0.790259,0.32676 z m 0.98597,-0.13038 c -0.25236,0.2522 -0.601107,0.40851 -0.98597,0.40851 H 4.6984457 c -0.384863,0 -0.733611,-0.15631 -0.985971,-0.40851 l -5.3e-4,-5.3e-4 c -0.252201,-0.25236 -0.408517,-0.60111 -0.408517,-0.98597 0,-0.38487 0.156316,-0.73361 0.408517,-0.98597 l 5.3e-4,-5.3e-4 c 0.25236,-0.2522 0.601108,-0.40852 0.985971,-0.40852 h 7.5364423 c 0.384863,0 0.73361,0.15632 0.98597,0.40852 l 5.29e-4,5.3e-4 c 0.252201,0.25236 0.408516,0.6011 0.408516,0.98597 0,0.38486 -0.156315,0.73361 -0.408516,0.98597 z m -9.4753913,-3.53637 h 9.4423973 c 0.441828,0 0.844444,0.1811 1.1362,0.4727 l 2.64e-4,2.7e-4 2.64e-4,2.6e-4 1.59e-4,1.6e-4 c 0.29144,0.29178 0.472547,0.69421 0.472547,1.13604 v 13.18501 c 0,0.44185 -0.181107,0.84444 -0.472706,1.13623 l -2.64e-4,2.6e-4 -2.64e-4,2.6e-4 -1.59e-4,1.8e-4 c -0.291782,0.29144 -0.694213,0.47255 -1.136041,0.47255 H 3.7454677 c -0.441826,0 -0.844443,-0.18111 -1.136199,-0.47273 l -2.64e-4,-2.6e-4 -2.64e-4,-2.6e-4 -1.59e-4,-1.9e-4 c -0.291466,-0.29176 -0.472547,-0.69419 -0.472547,-1.13604 v -13.18501 c 0,-0.44183 0.181081,-0.84444 0.472705,-1.1362 l 2.64e-4,-2.6e-4 2.64e-4,-2.7e-4 1.59e-4,-1.6e-4 c 0.291757,-0.29144 0.694215,-0.47254 1.136041,-0.47254 z m 9.4423973,0.27813 H 3.7454677 c -0.366314,0 -0.699292,0.14959 -0.940169,0.39063 l -5.29e-4,5.3e-4 c -0.241036,0.24087 -0.390605,0.57385 -0.390605,0.94017 v 13.18501 c 0,0.36631 0.149754,0.69945 0.390605,0.94017 l 5.29e-4,5.3e-4 c 0.240877,0.24103 0.573855,0.3906 0.94017,0.3906 h 9.4423933 c 0.366316,0 0.699453,-0.14973 0.94017,-0.3906 l 5.29e-4,-5.3e-4 c 0.240878,-0.24072 0.39063,-0.57386 0.39063,-0.94017 v -13.18501 c 0,-0.36632 -0.149593,-0.6993 -0.39063,-0.94017 l -5.29e-4,-5.3e-4 c -0.240714,-0.24088 -0.573851,-0.39063 -0.940167,-0.39063 z" style="" fill="#000000" fill-rule="evenodd" stroke-width="0.26458335"/></g><text x="0" y="31.933334" fill="#000000" font-size="5px" font-weight="bold" font-family="'Helvetica Neue', Helvetica, Arial-Unicode, Arial, Sans-serif">Created by Alvida Biersack</text><text x="0" y="36.933334" fill="#000000" font-size="5px" font-weight="bold" font-family="'Helvetica Neue', Helvetica, Arial-Unicode, Arial, Sans-serif">from the Noun Project</text></svg>